<svg width="71" height="70" viewBox="0 0 71 70" fill="none" xmlns="http://www.w3.org/2000/svg">
<path d="M54.2604 0H17.0729C8.01195 0 0.666626 7.34533 0.666626 16.4062V53.5938C0.666626 62.6547 8.01195 70 17.0729 70H54.2604C63.3213 70 70.6666 62.6547 70.6666 53.5938V16.4062C70.6666 7.34533 63.3213 0 54.2604 0Z" fill="#00005B"/>
<path d="M29.4205 42.6891H18.5705L16.3538 49.5723C16.2955 49.8348 16.0623 50.0098 15.7998 49.9808H10.3163C9.99552 49.9808 9.90802 49.8058 9.99552 49.4558L19.3873 22.5348C19.4748 22.2433 19.5623 21.9808 19.6788 21.6308C19.7955 21.0183 19.8538 20.3766 19.8538 19.7348C19.8248 19.5891 19.9413 19.4433 20.087 19.4141H27.6413C27.8455 19.4141 27.9913 19.5016 28.0205 19.6473L38.6663 49.3973C38.7538 49.7183 38.6663 49.8641 38.3748 49.8641H32.2788C32.0748 49.8933 31.8705 49.7473 31.8123 49.5433L29.4205 42.5433V42.6891ZM20.2623 36.8848H27.6705C27.4955 36.2723 27.262 35.5433 26.9995 34.7848C26.737 33.9973 26.4745 33.1516 26.212 32.2766C25.9205 31.3723 25.658 30.4973 25.3663 29.5933C25.0745 28.6891 24.8123 27.8433 24.5788 26.9973C24.3455 26.1808 24.1413 25.4223 23.937 24.7223H23.8788C23.6163 25.9766 23.2955 27.2308 22.887 28.4848C22.4495 29.8848 22.012 31.3433 21.5455 32.8016C21.1663 34.2891 20.6995 35.6598 20.2623 36.8848ZM55.8455 40.0641H46.5998C46.7163 40.9683 47.008 41.8723 47.5038 42.6598C48.0288 43.4473 48.758 44.0598 49.633 44.4098C50.7998 44.9058 52.083 45.1683 53.3663 45.1391C54.3873 45.1098 55.408 45.0223 56.3998 44.8183C57.2892 44.7018 58.161 44.4764 58.9955 44.1473C59.1413 44.0308 59.2288 44.0891 59.2288 44.3808V48.8433C59.2288 48.9598 59.1998 49.0766 59.1705 49.1933C59.1123 49.2808 59.0538 49.3391 58.9663 49.3973C58.0335 49.807 57.054 50.1009 56.0498 50.2723C54.6854 50.5347 53.2971 50.652 51.908 50.6223C49.6913 50.6223 47.8248 50.2723 46.308 49.6016C44.8788 48.9891 43.6248 48.0266 42.633 46.8308C41.7095 45.7071 41.0248 44.407 40.6205 43.0098C40.2123 41.6391 40.008 40.2098 40.008 38.7516C40.008 37.1766 40.2413 35.6308 40.7373 34.1141C41.2023 32.6537 41.9451 31.2969 42.9248 30.1183C43.8873 28.9516 45.083 28.0183 46.4538 27.3473C47.8248 26.6766 49.458 26.4433 51.3248 26.4433C52.8705 26.4141 54.4163 26.7058 55.8455 27.3473C57.0413 27.8723 58.0913 28.6598 58.908 29.6808C59.6663 30.6723 60.2788 31.7808 60.658 33.0058C61.0373 34.1723 61.2123 35.3683 61.2123 36.5641C61.2123 37.2641 61.183 37.8766 61.1538 38.4308C61.0955 38.9848 61.0663 39.3933 61.0373 39.6558C61.008 39.8598 60.833 40.0348 60.6288 40.0348C60.4538 40.0348 60.133 40.0641 59.6663 40.0933C59.1998 40.1516 58.6455 40.1808 57.9748 40.1808C57.3038 40.1808 56.6038 40.0641 55.8455 40.0641ZM46.5998 35.8058H52.7538C53.5123 35.8058 54.0663 35.8058 54.4163 35.7766C54.6498 35.7473 54.883 35.6891 55.0873 35.5433V35.2516C55.0884 34.8847 55.0293 34.5201 54.9123 34.1723C54.3873 32.5391 52.8413 31.4308 51.1205 31.4891C50.3289 31.4447 49.5414 31.6304 48.8531 32.0238C48.1647 32.4171 47.6049 33.0013 47.2413 33.7058C46.8913 34.3766 46.6873 35.0766 46.5998 35.8058Z" fill="#9999FF"/>
</svg>
