<svg width="71" height="70" viewBox="0 0 71 70" fill="none" xmlns="http://www.w3.org/2000/svg">
<path d="M54.2604 0H17.0729C8.01202 0 0.666687 7.34533 0.666687 16.4062V53.5938C0.666687 62.6547 8.01202 70 17.0729 70H54.2604C63.3214 70 70.6667 62.6547 70.6667 53.5938V16.4062C70.6667 7.34533 63.3214 0 54.2604 0Z" fill="#330000"/>
<path d="M34.4999 41.6535H23.6499L21.4332 48.5078C21.3749 48.7703 21.1417 48.9453 20.8792 48.916H15.3957C15.0749 48.916 14.9874 48.741 15.0749 48.391L24.4667 21.3535C24.5542 21.062 24.6417 20.741 24.7582 20.391C24.8749 19.7785 24.9332 19.137 24.9332 18.4953C24.9042 18.3495 25.0207 18.2035 25.1667 18.1745H32.7207C32.9542 18.1745 33.0707 18.262 33.0999 18.4078L43.7457 48.4495C43.8332 48.7703 43.7457 48.916 43.4542 48.916H37.3582C37.1542 48.9453 36.9499 48.7995 36.8917 48.5953L34.4999 41.6535ZM25.3417 35.7328H32.7499C32.5749 35.1203 32.3417 34.391 32.0792 33.6328C31.8167 32.8453 31.5542 31.9995 31.2917 31.1245C30.9999 30.2203 30.7374 29.3453 30.4457 28.441C30.1542 27.537 29.8917 26.691 29.6582 25.8453C29.4249 25.0288 29.2207 24.2703 29.0167 23.5703H28.9582C28.6957 24.8245 28.3749 26.0788 27.9667 27.3328C27.5292 28.7328 27.0917 30.191 26.6249 31.6495C26.2482 33.0261 25.8202 34.3882 25.3417 35.7328ZM50.2499 23.2785C49.2874 23.3078 48.3542 22.9285 47.6542 22.2578C46.9834 21.5285 46.6334 20.566 46.6624 19.5745C46.6334 18.5828 47.0124 17.6495 47.7124 16.9785C48.4124 16.3078 49.3459 15.9578 50.3084 15.9578C51.4459 15.9578 52.3209 16.3078 52.9624 16.9785C53.6088 17.6856 53.9541 18.6169 53.9249 19.5745C53.9542 20.566 53.6042 21.5285 52.9042 22.2578C52.2334 22.9578 51.2417 23.337 50.2499 23.2785ZM46.9834 48.5953V26.137C46.9834 25.8453 47.0999 25.7285 47.3624 25.7285H53.1374C53.3999 25.7285 53.5167 25.8745 53.5167 26.137V48.5953C53.5167 48.916 53.3999 49.062 53.1374 49.062H47.4209C47.1292 49.062 46.9834 48.887 46.9834 48.5953Z" fill="#FF9A00"/>
</svg>
