<svg width="51" height="70" viewBox="0 0 51 70" fill="none" xmlns="http://www.w3.org/2000/svg">
<path d="M25.4563 69.8231L5.25481 64.215L0.752899 13.7219H50.2202L45.7136 64.2072L25.4563 69.8231Z" fill="#264DE4"/>
<path d="M41.8555 60.9924L45.7065 17.8503H25.4866V65.5304L41.8555 60.9924Z" fill="#2965F1"/>
<path d="M11.0734 36.5777L11.6283 42.7705H25.4866V36.5777H11.0734ZM9.95801 24.0435L10.5209 30.2362H25.4866V24.0435H9.95801ZM25.4866 52.661L25.4594 52.6682L18.5626 50.806L18.1216 45.867H11.905L12.7726 55.5906L25.4581 59.1119L25.4866 59.1042V52.661Z" fill="#EBEBEB"/>
<path d="M12.3948 0H19.8951V3.13662H15.5315V6.27324H19.8955V9.40967H12.3948V0ZM21.3954 0H28.8958V2.72748H24.532V3.27294H28.8958V9.54618H21.3956V6.68199H25.7594V6.13654H21.3952L21.3954 0ZM30.3961 0H37.8966V2.72748H33.5327V3.27294H37.8966V9.54618H30.3961V6.68199H34.7599V6.13654H30.3963L30.3961 0Z" fill="black"/>
<path d="M39.8602 36.5777L40.9781 24.0435H25.4653V30.2362H34.1914L33.6279 36.5777H25.4653V42.7705H33.091L32.372 50.8021L25.4651 52.6663V59.109L38.1607 55.5906L38.2537 54.5443L39.7092 38.2407L39.8602 36.5777Z" fill="white"/>
</svg>
