<svg width="50" height="70" viewBox="0 0 50 70" fill="none" xmlns="http://www.w3.org/2000/svg">
<path d="M49.8601 13.7219L45.3535 64.2072L25.0962 69.8231L4.8947 64.215L0.392792 13.7219H49.8601Z" fill="#E44D26"/>
<path d="M25.1265 65.5304L41.4954 60.9924L45.3464 17.8503H25.1265V65.5304Z" fill="#F16529"/>
<path d="M16.3658 30.2362H25.1265V24.0435H9.5979L9.74604 25.7048L11.2682 42.7705H25.1265V36.5777H16.9318L16.3658 30.2362ZM17.7615 45.867H11.5449L12.4124 55.5906L25.098 59.1119L25.1265 59.1042V52.661L25.0993 52.6682L18.2025 50.806L17.7615 45.867Z" fill="#EBEBEB"/>
<path d="M4.99515 0H8.14224V3.10928H11.0212V0H14.1684V9.41568H11.0214V6.26277H8.14243V9.41568H4.99534L4.99515 0ZM18.3068 3.12247H15.5366V0H24.2263V3.12247H21.4545V9.41568H18.3074V3.12247H18.3068ZM25.6054 0H28.8869L30.9054 3.30842L32.922 0H36.2049V9.41568H33.0706V4.74875L30.9054 8.09654H30.8511L28.6846 4.74875V9.41568H25.6054V0ZM37.771 0H40.9191V6.30349H45.3448V9.41568H37.7709L37.771 0Z" fill="black"/>
<path d="M25.1051 42.7705H32.7309L32.0119 50.8021L25.1049 52.6663V59.109L37.8005 55.5906L37.8936 54.5443L39.3491 38.2407L39.5001 36.5777H25.1051V42.7705ZM25.1051 30.2211V30.2362H40.0636L40.1877 28.8444L40.47 25.7048L40.618 24.0435H25.1051V30.2211Z" fill="white"/>
</svg>
