<svg width="71" height="70" viewBox="0 0 71 70" fill="none" xmlns="http://www.w3.org/2000/svg">
<path d="M13.0626 0.875H58.2706C65.1251 0.875 70.6666 6.41648 70.6666 13.271V56.729C70.6666 63.5835 65.1251 69.125 58.2706 69.125H13.0626C6.20811 69.125 0.666626 63.5835 0.666626 56.729V13.271C0.666626 6.41648 6.20811 0.875 13.0626 0.875Z" fill="#001E36"/>
<path d="M25.7501 18.229C24.8751 18.229 24.0001 18.229 23.0962 18.2585C22.1916 18.2875 21.3456 18.2875 20.5581 18.3171C19.7706 18.346 19.0416 18.346 18.3416 18.375C17.6706 18.404 17.2041 18.404 16.7081 18.404C16.5041 18.404 16.4166 18.5205 16.4166 18.725V48.7375C16.4166 49 16.5331 49.1171 16.7666 49.1171H22.4251C22.6291 49.0875 22.7751 48.9125 22.7456 48.7085V39.346C23.2996 39.346 23.7081 39.346 24.0001 39.375C24.2916 39.404 24.7581 39.404 25.4581 39.404C27.8501 39.404 30.0376 39.1415 32.0206 38.4125C33.9166 37.7125 35.5501 36.4875 36.7166 34.854C37.8833 33.2207 38.4666 31.1498 38.4666 28.6415C38.4666 27.329 38.2337 26.075 37.7962 24.85C37.3326 23.602 36.6064 22.4681 35.6666 21.525C34.5575 20.4475 33.2223 19.6304 31.7581 19.133C30.1246 18.5205 28.1416 18.229 25.7501 18.229ZM26.4009 23.9739C27.44 23.9936 28.4517 24.1752 29.3956 24.558C30.2416 24.879 30.9416 25.4625 31.4376 26.2205C31.9028 27.0049 32.1355 27.9054 32.1087 28.8171C32.1087 30.1 31.8166 31.0921 31.2041 31.821C30.5621 32.55 29.7456 33.1046 28.8126 33.3671C27.7331 33.7171 26.5956 33.8915 25.4581 33.8915H23.9121C23.5621 33.8915 23.1837 33.8625 22.7751 33.8335V24.0335C22.9791 24.004 23.3876 23.975 23.9712 24.0046C24.5251 23.975 25.1956 23.975 25.9541 23.975C26.1036 23.9714 26.2525 23.971 26.4009 23.9739ZM50.8626 25.4631C48.7916 25.4631 47.0706 25.7835 45.7001 26.4835C44.4462 27.067 43.3666 28 42.6376 29.1665C41.9962 30.246 41.6456 31.4415 41.6456 32.696C41.6207 33.7278 41.8512 34.7498 42.3166 35.671C42.8621 36.6519 43.6195 37.4988 44.5337 38.15C45.8167 39.0276 47.209 39.7336 48.6751 40.25C50.1041 40.804 51.0666 41.2415 51.5337 41.6205C52.0001 42 52.2337 42.379 52.2337 42.7875C52.2337 43.3125 51.9126 43.8085 51.4462 44.0125C50.9212 44.275 50.1337 44.421 49.0251 44.421C47.8587 44.421 46.6916 44.275 45.5831 43.9835C44.3103 43.6993 43.09 43.2171 41.9666 42.5546C41.8791 42.496 41.7916 42.4671 41.7041 42.5256C41.6166 42.5835 41.5876 42.7 41.5876 42.7875V47.8625C41.5587 48.096 41.7041 48.3 41.9087 48.4165C42.8545 48.8584 43.8549 49.1723 44.8837 49.35C46.1962 49.6125 47.5081 49.729 48.8496 49.729C50.9496 49.729 52.7001 49.4085 54.1291 48.796C55.4416 48.271 56.5791 47.3671 57.3956 46.2C58.1603 45.0527 58.5571 43.6996 58.5331 42.321C58.5619 41.2796 58.3315 40.2474 57.8626 39.317C57.3081 38.325 56.5206 37.5085 55.5581 36.896C54.15 36.0118 52.6424 35.297 51.0666 34.7665C50.3629 34.4752 49.672 34.1541 48.9956 33.804C48.6166 33.6 48.2666 33.3375 48.0041 33.0165C47.8291 32.783 47.7126 32.521 47.7126 32.2585C47.7126 31.996 47.8001 31.7046 47.9456 31.471C48.1501 31.1796 48.4706 30.975 48.8496 30.8875C49.4041 30.7421 50.0166 30.654 50.5996 30.683C51.7081 30.683 52.7871 30.829 53.8666 31.0625C54.8587 31.2665 55.7916 31.5875 56.6666 32.0545C56.7831 32.1125 56.9291 32.1125 57.1916 32.0545C57.2372 32.0208 57.2742 31.9767 57.2995 31.926C57.3249 31.8753 57.338 31.8192 57.3376 31.7625V27.0085C57.3376 26.8915 57.3081 26.775 57.2791 26.6585C57.2206 26.5421 57.1041 26.425 56.9876 26.396C56.1832 26.0672 55.3403 25.8418 54.4791 25.725C53.2815 25.5506 52.0729 25.4635 50.8626 25.4631Z" fill="#31A8FF"/>
</svg>
