<svg width="71" height="70" viewBox="0 0 71 70" fill="none" xmlns="http://www.w3.org/2000/svg">
<path d="M54.2604 0H17.0729C8.01195 0 0.666626 7.34533 0.666626 16.4062V53.5938C0.666626 62.6547 8.01195 70 17.0729 70H54.2604C63.3213 70 70.6666 62.6547 70.6666 53.5938V16.4062C70.6666 7.34533 63.3213 0 54.2604 0Z" fill="#4353FF"/>
<path d="M46.9063 28.2833C46.9063 28.2833 43.1287 40.1182 42.8496 41.1231C42.738 40.1368 39.9839 18.8672 39.9839 18.8672C33.5453 18.8672 30.1213 23.4448 28.2975 28.2833C28.2975 28.2833 23.7013 40.1554 23.3291 41.1417C23.3105 40.2112 22.622 28.3948 22.622 28.3948C22.231 22.4585 16.8158 18.8672 12.4244 18.8672L17.7094 51.0787C24.4456 51.0601 28.0744 46.5011 29.9723 41.6443C29.9723 41.6443 34.0104 31.1675 34.178 30.7024C34.2152 31.1489 37.0808 51.0787 37.0808 51.0787C43.8358 51.0787 47.4832 46.8174 49.4369 42.1466L58.9088 18.8672C52.2282 18.8672 48.7112 23.4262 46.9063 28.2833Z" fill="white"/>
</svg>
