<svg width="35pt" height="21pt" viewBox="0 0 35 21" xmlns="http://www.w3.org/2000/svg"><g id="fontsvg1723659047066" stroke-linecap="round" fill-rule="evenodd" fill="#3c6eef"><path d="M 2.139 0.161 L 5.537 0.571 L 8.73 0.366 L 11.499 0.571 L 12.144 0.366 A 5.31 5.31 0 0 1 14.406 1.384 A 6.184 6.184 0 0 1 14.473 1.436 L 14.692 3.779 L 14.473 4.409 L 13.843 5.479 L 12.349 5.684 L 11.924 5.479 L 5.537 5.259 L 6.182 7.397 L 12.568 6.958 L 13.198 7.192 L 14.268 8.027 L 14.048 9.741 A 9.46 9.46 0 0 1 13.391 11.353 A 11.348 11.348 0 0 1 12.979 12.085 L 9.8 12.29 L 6.812 11.44 A 4.023 4.023 0 0 0 5.806 13.571 A 5.148 5.148 0 0 0 5.757 13.989 A 7.895 7.895 0 0 0 8.306 14.634 L 14.268 14.209 L 14.912 14.634 L 15.322 16.978 A 7.496 7.496 0 0 1 14.906 18.728 A 9.485 9.485 0 0 1 14.473 19.731 L 12.144 19.951 L 11.499 19.731 L 8.306 19.321 Q 6.885 19.702 5.317 19.731 L 2.344 20.171 A 5.82 5.82 0 0 1 0.659 18.975 A 7.113 7.113 0 0 1 0.205 18.472 L 0 16.128 L 0.205 15.483 L 0.425 13.784 L 0.205 13.359 L 0.205 12.085 L 0.425 8.467 L 0.205 5.479 L 0.425 1.86 A 5.811 5.811 0 0 1 1.27 0.868 A 7.834 7.834 0 0 1 2.139 0.161 Z M 22.661 0.835 L 25.562 0 L 28.682 0.835 A 19.905 19.905 0 0 1 30.277 1.46 A 25.375 25.375 0 0 1 31.582 2.08 A 12.781 12.781 0 0 1 33.632 3.907 A 14.067 14.067 0 0 1 33.662 3.94 A 9.185 9.185 0 0 1 32.66 5.825 A 10.882 10.882 0 0 1 32.212 6.431 A 11.057 11.057 0 0 1 29.682 7.022 A 12.51 12.51 0 0 1 29.297 7.061 L 26.807 5.596 L 24.521 5.391 L 23.687 5.815 Q 23.906 7.061 25.356 7.471 L 28.682 8.086 A 13.659 13.659 0 0 1 30.867 8.717 A 15.592 15.592 0 0 1 31.377 8.921 A 9.83 9.83 0 0 1 33.339 10.658 A 10.956 10.956 0 0 1 33.457 10.796 A 8.964 8.964 0 0 1 33.926 12.557 A 11.844 11.844 0 0 1 34.072 14.106 L 33.032 17.021 L 30.952 18.882 Q 29.575 19.438 27.847 19.717 L 24.727 20.332 Q 23.262 20.288 21.416 19.717 A 9.364 9.364 0 0 1 19.337 18.566 A 10.793 10.793 0 0 1 18.926 18.252 A 13.764 13.764 0 0 1 17.933 17.358 Q 17.464 16.895 16.983 16.345 A 22.704 22.704 0 0 1 16.846 16.187 A 3.534 3.534 0 0 1 18.043 14.811 A 5.03 5.03 0 0 1 18.926 14.326 A 3.701 3.701 0 0 1 20.798 13.357 A 4.923 4.923 0 0 1 21.416 13.271 A 16.653 16.653 0 0 0 22.697 14.155 A 20.836 20.836 0 0 0 23.687 14.736 L 24.727 15.146 L 27.012 14.941 A 3.576 3.576 0 0 0 28.137 14.413 A 4.125 4.125 0 0 0 28.257 14.326 A 1.513 1.513 0 0 0 28.007 13.504 Q 27.874 13.293 27.669 13.093 A 2.911 2.911 0 0 0 27.642 13.066 L 24.727 12.861 L 24.111 12.656 L 20.991 12.246 L 18.926 10.371 A 13.631 13.631 0 0 1 18.038 8.05 A 15.535 15.535 0 0 1 17.886 7.471 L 18.296 4.365 L 19.966 2.285 A 13.726 13.726 0 0 1 21.662 1.291 A 16.626 16.626 0 0 1 22.661 0.835 Z M 29.092 12.451 L 30.337 12.656 L 30.542 12.246 L 30.117 12.041 L 29.502 11.411 L 29.297 12.246 A 6.279 6.279 0 0 1 28.598 11.529 A 8.398 8.398 0 0 1 28.052 10.796 A 2.716 2.716 0 0 0 28.752 12.132 A 3.599 3.599 0 0 0 29.092 12.451 Z M 22.031 7.266 L 21.621 6.65 A 7.851 7.851 0 0 0 20.602 9.041 A 8.824 8.824 0 0 0 20.581 9.126 L 21.416 9.126 L 22.031 7.266 Z M 27.422 2.9 L 28.052 4.556 L 29.502 4.146 A 6.339 6.339 0 0 0 28.078 3.188 A 7.675 7.675 0 0 0 27.422 2.9 Z M 5.317 15.923 L 4.482 16.978 L 4.893 17.622 A 3.586 3.586 0 0 0 5.308 16.154 A 4.273 4.273 0 0 0 5.317 15.923 Z M 22.441 4.98 L 22.031 4.146 L 21.211 4.775 L 22.441 4.98 Z M 24.727 17.842 L 23.276 17.842 A 0.442 0.442 0 0 0 23.451 18.128 Q 23.519 18.18 23.611 18.222 A 1.103 1.103 0 0 0 23.687 18.252 L 24.727 17.842 Z M 20.801 15.776 L 20.581 16.187 L 20.801 16.802 Q 21.127 16.58 21.454 16.182 A 5.24 5.24 0 0 0 21.621 15.967 L 20.801 15.776 Z M 9.58 2.08 A 2.025 2.025 0 0 0 10.202 2.86 A 2.808 2.808 0 0 0 10.635 3.135 A 3.321 3.321 0 0 0 10.155 2.553 Q 9.911 2.314 9.6 2.094 A 5.476 5.476 0 0 0 9.58 2.08 Z M 8.73 17.197 L 7.661 16.758 L 7.881 17.622 L 8.73 17.197 Z M 25.972 9.346 L 25.356 9.126 L 24.946 9.756 L 25.781 9.961 L 25.972 9.346 Z M 3.838 4.849 L 3.193 6.123 A 2.084 2.084 0 0 0 3.838 4.849 Z M 28.682 16.187 A 1.604 1.604 0 0 0 29.215 17.358 A 2.189 2.189 0 0 0 29.297 17.432 A 2.685 2.685 0 0 0 28.974 16.607 A 3.5 3.5 0 0 0 28.682 16.187 Z M 1.919 14.209 A 1.313 1.313 0 0 0 2.34 14.795 Q 2.521 14.943 2.769 15.059 Q 2.608 14.488 1.92 14.209 Z M 30.762 10.576 A 1.572 1.572 0 0 0 31.188 11.438 A 2.114 2.114 0 0 0 31.377 11.616 Q 31.23 11.045 30.762 10.576 Z M 10.43 16.553 L 9.8 17.402 A 1.04 1.04 0 0 0 10.202 17.107 Q 10.348 16.927 10.407 16.674 A 1.424 1.424 0 0 0 10.43 16.553 Z M 25.356 2.9 L 24.727 3.735 A 1.138 1.138 0 0 0 25.05 3.545 Q 25.305 3.325 25.35 2.964 A 1.225 1.225 0 0 0 25.356 2.9 Z M 2.549 12.085 Q 2.563 12.539 2.974 12.935 A 0.999 0.999 0 0 0 2.81 12.393 Q 2.71 12.235 2.549 12.085 Z M 2.549 17.197 L 3.193 17.827 A 0.939 0.939 0 0 0 2.668 17.246 A 1.354 1.354 0 0 0 2.549 17.197 Z M 4.043 9.521 L 3.618 9.302 L 3.838 9.946 L 4.043 9.521 Z M 2.769 8.672 L 2.344 8.467 L 2.549 9.097 L 2.769 8.672 Z M 3.413 8.027 L 2.769 7.822 Q 2.836 8.079 3.141 8.224 A 1.192 1.192 0 0 0 3.193 8.247 L 3.413 8.027 Z M 22.441 3.12 L 21.826 2.9 A 0.489 0.489 0 0 0 22.021 3.197 Q 22.093 3.251 22.19 3.292 A 1.106 1.106 0 0 0 22.236 3.311 L 22.441 3.12 Z M 30.337 14.517 L 30.542 14.326 L 29.927 14.106 A 0.507 0.507 0 0 0 30.021 14.27 Q 30.122 14.391 30.311 14.502 A 1.867 1.867 0 0 0 30.337 14.517 Z M 29.707 16.187 L 29.297 15.557 A 1.078 1.078 0 0 0 29.431 15.899 A 0.945 0.945 0 0 0 29.707 16.187 Z M 4.248 14.854 A 0.524 0.524 0 0 0 4.395 15.092 Q 4.504 15.198 4.688 15.278 Q 4.649 15.022 4.341 14.889 A 1.16 1.16 0 0 0 4.248 14.854 Z M 22.661 2.49 A 0.489 0.489 0 0 0 22.856 2.787 Q 22.928 2.841 23.025 2.882 A 1.106 1.106 0 0 0 23.071 2.9 A 0.442 0.442 0 0 0 22.896 2.614 Q 22.829 2.562 22.737 2.521 A 1.103 1.103 0 0 0 22.661 2.49 Z M 26.538 18.212 A 2.085 2.085 0 0 0 26.602 18.252 A 0.489 0.489 0 0 0 26.406 17.955 Q 26.334 17.902 26.237 17.86 A 1.106 1.106 0 0 0 26.191 17.842 Q 26.257 18.027 26.538 18.212 Z M 3.193 12.935 L 3.413 13.359 L 3.413 12.935 L 3.193 12.935 Z M 25.781 17.212 L 25.972 17.637 L 25.972 17.212 L 25.781 17.212 Z M 22.236 16.392 L 22.441 16.802 L 22.441 16.392 L 22.236 16.392 Z" vector-effect="non-scaling-stroke"/></g></svg>